inDegrees=yes
name=ik_S57_A05_T02
DataType=double
version=3
OpenSimVersion=4.3-2021-08-27-4bc7ad9
endheader
time	pelvis_tilt	pelvis_list	pelvis_rotation	pelvis_tx	pelvis_ty	pelvis_tz	hip_flexion_r	hip_adduction_r	hip_rotation_r	knee_angle_r	knee_angle_r_beta	ankle_angle_r	subtalar_angle_r	mtp_angle_r	hip_flexion_l	hip_adduction_l	hip_rotation_l	knee_angle_l	knee_angle_l_beta	ankle_angle_l	subtalar_angle_l	mtp_angle_l	lumbar_extension	lumbar_bending	lumbar_rotation	arm_flex_r	arm_add_r	arm_rot_r	elbow_flex_r	pro_sup_r	wrist_flex_r	wrist_dev_r	arm_flex_l	arm_add_l	arm_rot_l	elbow_flex_l	pro_sup_l	wrist_flex_l	wrist_dev_l
0	0	0	0	0	0.9399999999999999	0	0	0	0	0	0	0	0	0	0	0	0	0	0	0	0	0	0	0	0	0	0	0	0	89.99999999963507	0	0	0	0	0	0	89.99999999869995	0	0
0.02	-2.960019117457196	3.057612287336994	32.03294942194827	0	0.9399999999999999	0	8.296119915031166	-3.736214299231955	-2.771038636625684	11.80713991119473	0.2060734666939789	0	0	0	8.296119915031166	-3.736214299231955	-2.771038636625684	11.80713991119473	0.2060734666939789	0	0	0	-5.441098461983671	-0.8460387294973654	0.889340616378117	6.862369455674345	-5.581649158895358	-13.46910077425618	58.80996650232092	131.5809036855597	0	0	10.76626910139334	-11.23392714160495	12.18035422989308	58.52211339020415	179.9869224820451	0	0
0.04	-2.952712485218479	3.035856411420604	31.88682920993432	0	0.9399999999999999	0	8.308930499833021	-3.742032041976379	-2.775394448616158	11.8210830890355	0.2063168210554915	0	0	0	8.308930499833021	-3.742032041976379	-2.775394448616158	11.8210830890355	0.2063168210554915	0	0	0	-5.449151409043325	-0.8776292393375656	1.045660088253087	6.87019817773057	-5.555065335852741	-13.48687294497811	58.80950546809681	131.5667360818597	0	0	10.75701007892063	-11.2461917235958	12.16223391587251	58.52931800615786	179.9869393866457	0	0
0.06	-2.946585836600331	3.005204131596326	31.75998473460044	0	0.9399999999999999	0	8.318996442178044	-3.746563076282164	-2.778804862778775	11.83209863745028	0.2065090786442422	0	0	0	8.318996442178044	-3.746563076282164	-2.778804862778775	11.83209863745028	0.2065090786442422	0	0	0	-5.462862795527492	-0.9164840689110061	1.20296985473954	6.884717808246992	-5.517499393500412	-13.51960228349394	58.81953859107619	131.5377151549172	0	0	10.77276011430765	-11.27999493943879	12.18380886104045	58.56591853165791	179.9869426497066	0	0
0.08	-2.935618404496549	2.997923275875757	31.62137369512344	0	0.9399999999999999	0	8.329547095494984	-3.751349856353853	-2.782391427837285	11.84357924492445	0.2067094530447955	0	0	0	8.329547095494984	-3.751349856353853	-2.782391427837285	11.84357924492445	0.2067094530447955	0	0	0	-5.45955557534116	-0.9368471793844292	1.344130110153962	6.877028799872104	-5.507322909438898	-13.52195627289034	58.80697215122168	131.5427288352942	0	0	10.76689909146647	-11.29516955931427	12.18392904866305	58.58180326351012	179.9869391401414	0	0
0.1	-2.938612475411512	2.999464243410985	31.49723860758938	0	0.9399999999999999	0	8.342751452422736	-3.75736094264127	-2.786886797157015	11.85790795640643	0.2069595362377245	0	0	0	8.342751452422736	-3.75736094264127	-2.786886797157015	11.85790795640643	0.2069595362377245	0	0	0	-5.463437840534329	-0.9422482428404471	1.491082988704666	6.851071315604335	-5.536600798598778	-13.54600672078208	58.82089053145501	131.5476784730543	0	0	10.75048427573481	-11.27757356529583	12.17933890011348	58.60941303194403	179.9869396380778	0	0
0.12	-2.928114078683219	2.997607062678687	31.35950170247241	0	0.9399999999999999	0	8.356537319236494	-3.763658135122665	-2.791587292388415	11.87282480758531	0.2072198844048259	0	0	0	8.356537319236494	-3.763658135122665	-2.791587292388415	11.87282480758531	0.2072198844048259	0	0	0	-5.458207922374392	-0.9586104163239284	1.648023463657823	6.818014265781849	-5.554083744120628	-13.58529402707351	58.85050650829403	131.5502845966907	0	0	10.7457496288993	-11.28282267817688	12.20180787292078	58.61443720776179	179.9869401340087	0	0
0.14	-2.913014412992402	2.983457166405904	31.22774172397388	0	0.9399999999999999	0	8.36728252206667	-3.768512192475341	-2.795234522480077	11.88453317064771	0.2074242338902837	0	0	0	8.36728252206667	-3.768512192475341	-2.795234522480077	11.88453317064771	0.2074242338902837	0	0	0	-5.455054375478142	-0.9873020534179434	1.790864212464256	6.812360578018258	-5.515043949525625	-13.60359564060094	58.85467691884481	131.5486992384728	0	0	10.73272668647906	-11.29774780350557	12.18865449361643	58.63260999053485	179.9869434867332	0	0
